<svg width="24" height="26" viewBox="0 0 24 26" fill="none" xmlns="http://www.w3.org/2000/svg">
<g id="icon/menu/dashboard-active" clip-path="url(#clip0_437_225)" filter="url(#filter0_d_437_225)">
<path id="Vector" d="M5.5 10.1333C5.33431 10.1333 5.2 9.99902 5.2 9.83333V3.5C5.2 3.33431 5.33431 3.2 5.5 3.2H10.1667C10.3324 3.2 10.4667 3.33431 10.4667 3.5V9.83333C10.4667 9.99902 10.3324 10.1333 10.1667 10.1333H5.5ZM5.5 16.8C5.33431 16.8 5.2 16.6657 5.2 16.5V13.5C5.2 13.3343 5.33431 13.2 5.5 13.2H10.1667C10.3324 13.2 10.4667 13.3343 10.4667 13.5V16.5C10.4667 16.6657 10.3324 16.8 10.1667 16.8H5.5ZM13.8333 16.8C13.6676 16.8 13.5333 16.6657 13.5333 16.5V10.1667C13.5333 10.001 13.6676 9.86667 13.8333 9.86667H18.5C18.6657 9.86667 18.8 10.001 18.8 10.1667V16.5C18.8 16.6657 18.6657 16.8 18.5 16.8H13.8333ZM13.5333 3.5C13.5333 3.33431 13.6676 3.2 13.8333 3.2H18.5C18.6657 3.2 18.8 3.33431 18.8 3.5V6.5C18.8 6.66569 18.6657 6.8 18.5 6.8H13.8333C13.6676 6.8 13.5333 6.66569 13.5333 6.5V3.5Z" stroke="white" stroke-width="1.4"/>
</g>
<defs>
<filter id="filter0_d_437_225" x="-2" y="0" width="28" height="28" filterUnits="userSpaceOnUse" color-interpolation-filters="sRGB">
<feFlood flood-opacity="0" result="BackgroundImageFix"/>
<feColorMatrix in="SourceAlpha" type="matrix" values="0 0 0 0 0 0 0 0 0 0 0 0 0 0 0 0 0 0 127 0" result="hardAlpha"/>
<feOffset dy="4"/>
<feGaussianBlur stdDeviation="2"/>
<feComposite in2="hardAlpha" operator="out"/>
<feColorMatrix type="matrix" values="0 0 0 0 0 0 0 0 0 0 0 0 0 0 0 0 0 0 0.25 0"/>
<feBlend mode="normal" in2="BackgroundImageFix" result="effect1_dropShadow_437_225"/>
<feBlend mode="normal" in="SourceGraphic" in2="effect1_dropShadow_437_225" result="shape"/>
</filter>
<clipPath id="clip0_437_225">
<rect width="20" height="20" fill="white" transform="translate(2)"/>
</clipPath>
</defs>
</svg>
